<svg version="1.2" xmlns="http://www.w3.org/2000/svg" viewBox="0 0 312 76" width="312" height="76">
	<title>MemeBlox</title>
	<style>
		.s0 { fill: #ffffff } 
	</style>
	<path id="MemeBlox" class="s0" aria-label="MemeBlox"  d="m0 36v-35.8h14.6l5.6 21.8 5.6-21.8h14.5v35.8h-9v-27.3l-7 27.3h-8.2l-7-27.3v27.3zm75.4-11.6v1.1h-19.9q0.3 2.4 1.3 3.6 1.4 1.7 3.8 1.7 1.4 0 2.8-0.8 0.8-0.4 1.7-1.6l9.8 0.9q-2.3 3.9-5.4 5.6-3.2 1.7-9.2 1.7-5.1 0-8.1-1.5-2.9-1.4-4.9-4.6-1.9-3.1-1.9-7.4 0-6.1 3.9-9.9 3.9-3.7 10.8-3.7 5.5 0 8.7 1.7 3.3 1.7 5 4.9 1.6 3.2 1.6 8.3zm-19.9-3.7h9.8q-0.3-2.8-1.5-4.1-1.3-1.2-3.3-1.2-2.4 0-3.8 1.8-0.9 1.2-1.2 3.5zm24.6 15.3v-25.9h9.3v3.8q2-2.4 4-3.4 2-1 4.9-1 3.1 0 4.9 1.1 1.8 1.1 3 3.3 2.3-2.6 4.2-3.5 2-0.9 4.8-0.9 4.2 0 6.5 2.5 2.4 2.4 2.4 7.7v16.3h-10v-14.8q0-1.7-0.7-2.6-1-1.3-2.5-1.3-1.7 0-2.8 1.2-1.1 1.3-1.1 4.1v13.4h-9.9v-14.3q0-1.7-0.2-2.3-0.3-1-1.1-1.6-0.8-0.6-1.9-0.6-1.7 0-2.8 1.3-1.1 1.3-1.1 4.3v13.2zm78.7-11.6v1.1h-19.9q0.3 2.4 1.3 3.6 1.5 1.7 3.8 1.7 1.4 0 2.8-0.8 0.8-0.4 1.7-1.6l9.8 0.9q-2.3 3.9-5.4 5.6-3.2 1.7-9.1 1.7-5.2 0-8.1-1.5-3-1.4-5-4.6-1.9-3.1-1.9-7.4 0-6.1 3.9-9.9 3.9-3.7 10.8-3.7 5.5 0 8.8 1.7 3.2 1.7 4.9 4.9 1.6 3.2 1.6 8.3zm-19.8-3.7h9.7q-0.3-2.8-1.5-4.1-1.3-1.2-3.3-1.2-2.4 0-3.8 1.8-0.9 1.2-1.1 3.5zm25.1 15.3v-35.8h20.7q5.2 0 7.9 2.6 2.8 2.5 2.8 6.3 0 3.2-2 5.5-1.3 1.5-3.8 2.4 3.8 0.9 5.6 3.2 1.9 2.2 1.9 5.6 0 2.8-1.3 5-1.3 2.2-3.6 3.5-1.3 0.8-4.2 1.2-3.7 0.5-4.9 0.5zm11.1-28.5v6.7h4.9q2.5 0 3.5-0.8 1.1-0.9 1.1-2.6 0-1.6-1.1-2.5-1-0.8-3.5-0.8zm0 13.6v7.2h5.7q2.8 0 4-1 1.2-1 1.2-2.7 0-1.6-1.2-2.6-1.2-0.9-4.1-0.9zm27.4 14.9v-35.8h10v35.8zm15.1-12.9q0-5.9 4-9.8 4-3.8 10.8-3.8 7.8 0 11.8 4.5 3.2 3.6 3.2 9 0 5.9-4 9.8-4 3.8-11 3.8-6.2 0-10.1-3.2-4.7-3.9-4.7-10.3zm9.9 0q0 3.5 1.4 5.1 1.5 1.7 3.6 1.7 2.1 0 3.5-1.7 1.4-1.6 1.4-5.2 0-3.4-1.4-5-1.4-1.7-3.4-1.7-2.2 0-3.6 1.7-1.5 1.7-1.5 5.1zm29.6-0.7l-8.9-12.3h11.7l4.2 7.2 4.8-7.2h10.9l-8.8 12.3 9.5 13.6h-11.6l-4.8-8.3-5.7 8.3h-10.7z"/>
	<path id="Wiki" class="s0" aria-label="Wiki"  d="m204.9 76l-7.9-35.8h10.5l3.8 20 5.5-20h10.4l5.6 20 3.8-20h10.4l-7.9 35.8h-10.8l-6.3-22.5-6.2 22.5zm47.1-29v-6.8h9.9v6.8zm0 29v-25.9h9.9v25.9zm16.3 0v-35.8h10.2v18.5l7.4-8.6h12.2l-9.3 9.1 9.9 16.8h-11.2l-5.3-10.4-3.7 3.7v6.7zm33.7-29v-6.8h9.9v6.8zm0 29v-25.9h10v25.9z"/>
</svg>